<svg xmlns="http://www.w3.org/2000/svg" viewBox="0 0 160 160" role="img" aria-label="Avatar"><defs><linearGradient id="bg" x1="0" y1="0" x2="1" y2="1"><stop stop-color="#e9eefc"/><stop offset="1" stop-color="#e5f5ef"/></linearGradient><filter id="s"><feDropShadow dx="0" dy="3" stdDeviation="4" flood-opacity=".14"/></filter></defs><rect width="160" height="160" rx="42" fill="url(#bg)"/><circle cx="128" cy="30" r="18" fill="#fff" opacity=".38"/><circle cx="31" cy="126" r="23" fill="#fff" opacity=".24"/><g filter="url(#s)"><path d="M28 160c5-38 25-57 52-57s47 19 52 57" fill="#f9fcfb"/><path d="M55 111c7 9 15 13 25 13s18-4 25-13l8 49H47Z" fill="#1f6d78" opacity=".92"/><ellipse cx="80" cy="68" rx="34" ry="39" fill="#dca68b"/><path d="M42 70c-6 24-2 50 10 68h14c-7-22-8-43-4-62Zm76 0c6 24 2 50-10 68H94c7-22 8-43 4-62Z" fill="#384a68" opacity=".96"/><path d="M39 82C34 43 51 20 80 20c31 0 46 25 40 67-8-14-13-23-20-30-11 8-29 11-52 7-5 7-7 12-9 18Z" fill="#384a68"/><ellipse cx="67" cy="69" rx="3.4" ry="3" fill="#18362d"/><ellipse cx="93" cy="69" rx="3.4" ry="3" fill="#18362d"/><path d="M68 86c8 7 16 7 24 0" fill="none" stroke="#a46761" stroke-width="3" stroke-linecap="round"/><path d="M80 72v8" stroke="#b47c6a" stroke-width="2" stroke-linecap="round"/></g><circle cx="127" cy="126" r="21" fill="#155b83"/><text x="127" y="132" text-anchor="middle" font-family="system-ui,sans-serif" font-size="17" font-weight="800" fill="#fff">E</text></svg>